<?xml version="1.0" encoding="UTF-8"?>
<!-- Created with Inkscape (http://www.inkscape.org/) -->
<svg width="274.97mm" height="139.9mm" version="1.1" viewBox="0 0 274.97 139.9" xmlns="http://www.w3.org/2000/svg">
 <g transform="translate(79.808 -79.582)">
  <g fill="#333145" stroke-width=".26458">
   <path d="m-15.875 92.416a9.0978 9.0978 0 0 0-0.59468-2.2766 1.0305 1.0305 0 0 0-0.5239-0.64526 1.0795 1.0795 0 0 0-0.51984-0.0058l-2.6689 0.40838a1.0231 1.0231 0 0 0-0.60895 0.23661c-0.34762 0.36557-0.0053 0.95424-0.01596 1.4586-0.01196 0.56713-0.51587 1.0275-1.0623 1.1798a4.0157 4.0157 0 0 1-1.688-0.02093l-3.7319-0.57995a6.1532 6.1532 0 0 0 2.8233-1.884c0.49112-0.58179 0.75239-1.668 0.04263-1.9435a1.7424 1.7424 0 0 0-0.6482-0.05205c-1.6908 0.01315-3.0214-1.3986-4.6043-1.9932a5.0908 5.0908 0 0 0-5.7295 1.708l1.9881 0.09585a0.88243 0.88243 0 0 1 0.52956 0.14123c0.43569 0.35797-0.10598 1.0455-0.04461 1.6061 0.07975 0.72826 1.0467 0.88375 1.7756 0.9574 0.72891 0.07364 1.6536 0.66587 1.303 1.3091-3.6636 1.2619-7.3917-2.4667-11.239-2.0078-0.97379 0.11617-1.8933 0.49872-2.8441 0.73927-5.8078 1.4694-11.812-2.4512-17.745-1.6209a22.533 22.533 0 0 0-3.8736 1.0216c-0.80749 0.26513-1.6498 0.55166-2.2365 1.1665s-0.81002 1.6665-0.25419 2.3094a12.998 12.998 0 0 1-4.555-0.43298 2.5519 2.5519 0 0 1 1.312 2.249 27.026 27.026 0 0 0-6.9234 2.111 11.661 11.661 0 0 0 1.433 1.9089l-3.0282 1.9455c1.0231 0.25777 1.552 1.6528 0.95709 2.5241 1.0608-0.47193 1.7183-1.6928 2.8526-1.9403 0.74317-0.16216 1.4994 0.14186 2.2044 0.42745s1.4799 0.56252 2.2097 0.34818 1.2681-1.1607 0.80439-1.7636a37.761 37.761 0 0 1 9.5919-1.4986 1.2029 1.2029 0 0 1 0.72644 0.13786c0.42287 0.29338 0.31161 0.92705 0.28883 1.4412-0.02278 0.51417 0.37796 1.1899 0.8375 0.95816-0.54065 0.46882-0.07846 1.3514 0.44023 1.8444 0.5187 0.493 1.1439 1.1733 0.82632 1.8146-0.08288 0.16737-0.22345 0.30128-0.3032 0.47017-0.23539 0.49852 0.13835 1.0797 0.57917 1.4108s0.98079 0.56243 1.287 1.0209c0.30622 0.45843 0.16716 1.2609-0.38041 1.3249l-1.5564-1.9761a4.0517 4.0517 0 0 0-1.0514 1.9924c1.6504 1.3492 1.8986 4.0953 0.51694 5.7185-0.70609 0.82954-1.7102 1.3336-2.5866 1.9806-0.87637 0.64705-1.6873 1.5684-1.6851 2.6578 0.0038 1.882-0.14997 3.6305 0.55527 5.3754a82.806 82.806 0 0 0 4.4954 9.3788c0.44472 0.79538 1.0195 1.6672 1.9204 1.8041q-1.7079-4.1577-3.0748-8.4448c0.59356 2e-3 1.2795 0.0495 1.6275 0.53032 0.28813 0.3982 0.22624 0.9396 0.31577 1.4229a4.4077 4.4077 0 0 0 0.5621 1.3214l5.4371 9.685c0.45072 0.80288 0.96773 1.6647 1.8291 1.9898 0.55075 0.20788 1.1879 0.16873 1.6949 0.468 0.39734 0.23459 0.66496 0.65101 1.07 0.87198 1.1453 0.62481 2.7381-0.57347 3.8084 0.17251 0.30605 0.2133 0.50074 0.55216 0.78274 0.79637 0.98856 0.85609 2.6102 0.28339 3.7514 0.92201 0.73548 0.41158 1.1166 1.2347 1.5089 1.9807 0.98264 1.8685 2.5726 3.6991 4.6785 3.8479 0.6615 0.0467 1.3372-0.0787 1.9838 0.0684 0.64662 0.14713 1.2831 0.71145 1.1793 1.3664-0.17795 1.1229 0.37685 2.3524 0.22785 3.4795-0.27141 2.053-3.1835 2.9552-3.4336 5.011-0.05477 0.4501 0.03096 0.9147-0.07622 1.3553-0.13136 0.53998-0.53688 0.97962-0.68098 1.5163-0.27308 1.0171 0.45563 2.0294 1.2562 2.7136 0.80053 0.68428 1.7554 1.2743 2.1931 2.2322 0.4626 1.0125 0.23537 2.193 0.38582 3.2959 0.32844 2.4078 2.4081 4.1928 4.5484 5.3437 0.6521 0.35067 1.3523 0.69014 1.7743 1.2985 0.55089 0.79399 0.49601 1.8407 0.67996 2.7894 0.45051 2.3234 2.4065 4.2379 2.462 6.604 0.03947 1.6817-0.89535 3.2074-1.4538 4.7942a11.18 11.18 0 0 0 0.91298 9.2725c0.41774 0.70538 0.91737 1.3704 1.2129 2.1351 0.52734 1.3646 0.35623 2.9158 0.84245 4.2956 0.64283 1.8242 2.4092 3.3309 2.2401 5.2577 0.80192 1.6653 2.5727 2.4836 4.3534 2.9792l3.1913 0.88834c0.61105 0.1701 1.2496 0.34154 1.8718 0.21838s1.216-0.63982 1.2-1.2739c-1.565-0.35294-3.1801-0.72825-4.4702-1.6819-1.2901-0.95364-2.1738-2.6518-1.6843-4.1796 0.22696-0.70842 0.70982-1.5265 0.25076-2.1118-0.26284-0.33515-0.74348-0.42272-1.0399-0.72851-0.46243-0.47695-0.30355-1.2782 0.02889-1.8534 0.33244-0.57515 0.81295-1.0891 0.94704-1.7398a1.8153 1.8153 0 0 0-0.85086-1.8886 4.5123 4.5123 0 0 0 1.5796-1.0135c0.4154-0.47437 0.60728-1.2057 0.28051-1.745 0.97037 0.12307 2.116 0.18334 2.753-0.55896 0.50866-0.59275 0.47373-1.4789 0.27274-2.2337-0.20099-0.75479-0.54071-1.4879-0.55129-2.2689a41.346 41.346 0 0 0 6.708-0.22746 4.3496 4.3496 0 0 0-2.0394-2.5542c1.0082-0.1706 1.9267-1.3776 2.2453-2.3493 0.31853-0.97167 0.23729-2.0301 0.040415-3.0335a1.6277 1.6277 0 0 1-0.030162-0.79473c0.11354-0.36182 0.46897-0.58261 0.79781-0.77146l5.0044-2.8741a2.915 2.915 0 0 0 0.80026-0.59079c0.52432-0.61587 0.44665-1.5456 0.17818-2.3085s-0.6985-1.4804-0.80191-2.2826c-0.3093-2.3991 2.2589-4.1205 3.1256-6.3789 0.34014-0.88627 0.40946-1.8496 0.47528-2.7966 0.070697-1.0171 0.075951-2.1986-0.70502-2.854-0.74863-0.62831-1.9184-0.48815-2.7017-1.0726-0.71821-0.53582-0.96599-1.5765-1.7506-2.0093-0.71254-0.39304-1.6059-0.14307-2.3984-0.32793-1.3953-0.32547-2.2734-1.9336-3.6984-2.0825-0.80402-0.084-1.714 0.30905-2.373-0.1592-0.58066-0.4126-0.60393-1.2419-0.71446-1.9456a5.4335 5.4335 0 0 0-4.3854-4.3995c-0.82899-0.13295-1.7313-0.0825-2.4366-0.53802-0.71411-0.46131-1.0415-1.325-1.6025-1.9638-0.90406-1.0296-2.3279-1.3954-3.6617-1.709l-5.4254-1.2754c-0.96312-0.22642-2.2046-0.34648-2.7214 0.49717a3.8995 3.8995 0 0 0-0.32192 1.0125 3.1354 3.1354 0 0 1-2.9486 2.2194 3.487 3.487 0 0 0-2.0562-1.591c-0.55014-0.15332-1.139-0.17037-1.6637-0.39593a2.337 2.337 0 0 1-1.014-3.2418 2.909 2.909 0 0 0-0.4971-3.4991c-0.92265-0.82833-2.2573-1.0285-3.4944-0.94559-0.32402-0.707 0.21775-1.5047 0.80157-2.0185s1.2928-1.0189 1.4199-1.7862c0.19999-1.2069-1.3399-2.1236-2.5091-1.7637-1.1692 0.35986-1.9155 1.4955-2.4088 2.615-0.28304 0.64231-0.52367 1.3187-0.97013 1.8603s-1.1654 0.92939-1.8455 0.75558c-0.96276-0.24606-1.3346-1.3899-1.5477-2.3605-0.28588-1.3022-0.57343-2.6225-0.51353-3.9544 0.0599-1.3319 0.5089-2.6994 1.491-3.601 1.6004-1.4693 4.0555-1.3252 6.2154-1.0909-0.51029-0.57494-0.38418-1.5439 0.16181-2.085a2.3706 2.3706 0 0 1 2.1486-0.52786 2.961 2.961 0 0 1 1.6646 0.99523c0.61378 0.74832 0.78832 1.7587 1.2522 2.6081 0.46393 0.84939 1.5071 1.5739 2.361 1.1182 0.73749-0.3936 0.85455-1.4162 0.671-2.2318-0.18355-0.81556-0.57339-1.6086-0.5069-2.4419 0.12687-1.59 1.7751-2.5472 3.2296-3.202s3.12-1.5355 3.3504-3.1139a2.839 2.839 0 0 1 0.1726-0.90495 1.7752 1.7752 0 0 1 0.65124-0.61242c4.245-2.8053 8.5605-5.6449 13.412-7.1778 0.25241-0.0798 0.28205 9e-3 0.53929-0.0536 0.36003-0.20809 0.12147-0.78371-0.22371-1.0156-0.34518-0.23189-0.80656-0.40971-0.89414-0.81623-0.064376-0.29882 0.11169-0.59224 0.15743-0.89448 0.11238-0.74268-0.77608-1.4284-1.4661-1.1315-0.38973-0.51614 0.38143-1.1159 1.005-1.2876a27.292 27.292 0 0 1 5.7336-0.93663 1.0327 1.0327 0 0 1 0.65243 0.11098c0.32568 0.2256 0.28407 0.74304 0.053258 1.065-0.23081 0.32201-0.58985 0.52419-0.87748 0.79666a2.3952 2.3952 0 0 0-0.62127 2.409c1.0123 0.51493 2.1128 1.045 3.234 0.8636 1.1212-0.1814 2.1163-1.4411 1.5893-2.4472-0.49075-0.93689-1.9649-1.1482-2.2184-2.175-0.2968-1.2022 1.405-2.2714 1.0217-3.4489-0.16792-0.51577-0.68193-0.81932-1.0764-1.1917a3.2335 3.2335 0 0 1-0.70761-3.5855 4.0795 4.0795 0 0 1-3.5779-1.1196c-0.85579-0.86367-1.5385-2.2261-2.7538-2.1874-1.1152 0.03545-2.0757 1.3365-3.1185 0.93956-0.25653-0.09765-0.52701-0.2964-0.77558-0.17995a0.64089 0.64089 0 0 0-0.2893 0.48022c-0.26499 1.2669 0.19086 2.7104-0.49964 3.8052-0.7514 1.1913-2.4894 1.3565-3.4003 2.4308-0.49448 0.58316-0.68606 1.369-1.1406 1.9838-0.45452 0.61482-1.4192 1.0057-1.9647 0.46993a2.7079 2.7079 0 0 0-0.73565-3.2928 7.2256 7.2256 0 0 0-1.6249-0.79035 9.6366 9.6366 0 0 1-1.8152-1.0117 1.788 1.788 0 0 1-0.66639-0.71303 1.6249 1.6249 0 0 1 0.04557-1.1276 4.6105 4.6105 0 0 1 3.669-3.041c0.72625-0.0988 1.5715-0.06399 2.0521-0.61734 0.25431-0.29279 0.38774-0.73546 0.75687-0.85437a1.1164 1.1164 0 0 1 0.69878 0.08605l2.7107 0.95414a1.9026 1.9026 0 0 0 0.96566 0.15971 0.65471 0.65471 0 0 0 0.56612-0.68804c-0.08661-0.45016-0.77929-0.66619-0.71626-1.1202a0.74789 0.74789 0 0 1 0.22687-0.38136 9.6914 9.6914 0 0 1 7.6865-3.0354c0.34214 0.56192-0.19897 1.2273-0.64921 1.707-0.45024 0.4797-0.81205 1.3368-0.26756 1.706a1.4929 1.4929 0 0 0 0.72176 0.16255 6.302 6.302 0 0 1 1.9211 0.5827q1.4051 0.61147 2.7562 1.3381c-0.079565-0.59391-0.1555-1.2196 0.069609-1.7749 0.22511-0.55533 0.8649-0.9909 1.4237-0.77464 0.53856 0.20842 0.81477 0.92154 1.3886 0.98688 0.7654 0.087189 1.0674-1.0435 0.74765-1.7444-0.31971-0.70086-0.95262-1.2877-1.0054-2.0562-0.035642-0.51847 0.16166-1.1615-0.25249-1.4754a1.1273 1.1273 0 0 0-0.48864-0.17134l-10.341-1.9029c-0.61407-0.113-1.5013-0.02641-1.5285 0.59739-0.01521 0.34819 0.29582 0.69266 0.15807 1.0128-0.14703 0.34168-0.63002 0.31044-0.98182 0.43129-0.54585 0.18751-0.81976 0.83567-0.76733 1.4104a3.9248 3.9248 0 0 0 0.6477 1.5895c-0.67262-0.2813-1.6911-0.333-2.3637-0.6143z"/>
   <path d="m-24.126 83.638a3.3486 3.3486 0 0 0-3.6784 1.1016c-0.17027 0.22419-0.31327 0.53324-0.17072 0.776 0.20437 0.34803 0.7251 0.21056 1.109 0.08607a2.7912 2.7912 0 0 1 1.7517-0.04179c0.3605 0.12377 0.68301 0.34252 1.0451 0.46162a1.0524 1.0524 0 0 0 1.0731-0.15681c0.24849-0.25343 0.26408-0.64744 0.26452-1.0024a0.80614 0.80614 0 0 0-0.20542-0.66256 1.0533 1.0533 0 0 0-0.47507-0.14052 1.6363 1.6363 0 0 1-0.95766-0.55955"/>
   <path d="m-20.397 82.6a0.85184 0.85184 0 0 0-0.82332 1.1997 3.4527 3.4527 0 0 0 1.3766 0.08976 1.1766 1.1766 0 0 0 0.9622-0.88219 2.2151 2.2151 0 0 1-1.5684-0.29955"/>
   <path d="m-7.887 80.866a15.836 15.836 0 0 0-3.5301 1.1992 2.6523 2.6523 0 0 1 1.694 2.6639 1.3872 1.3872 0 0 0 0.01606 0.65864c0.12965 0.31431 0.50533 0.43224 0.83562 0.51292a5.5093 5.5093 0 0 0 1.8328 0.23393 1.867 1.867 0 0 0 1.5171-0.92705 6.6073 6.6073 0 0 1 0.31548-0.74576c0.79168-1.2057 3.1436 0.25217 3.9936-0.91317 0.29942-0.41051 0.27204-1.0284 0.66237-1.3537a1.488 1.488 0 0 1 0.68091-0.25986 47.818 47.818 0 0 1 5.1722-0.73663c0.82265-0.07159 1.8949-0.36698 1.9018-1.1927a14.327 14.327 0 0 0-9.139 1.2294c-1.0188 0.51026-2.3662 1.5836-3.3475 0.90713-0.36743-0.25329-0.34923-0.93533-0.85494-1.2201-0.51702-0.29119-1.2014-0.17276-1.7502-0.05615z"/>
   <path d="m2.2464 82.761 1.4545 0.27948a1.8848 1.8848 0 0 0-1.9615 2.0426c1.3621 0.45503 2.8471 0.01222 4.2819 0.07272 1.4348 0.06049 3.1043 1.0854 2.8593 2.5005-0.07406 0.42787-0.32123 0.85545-0.1927 1.2702 0.090088 0.29071 0.34647 0.49699 0.49119 0.76473 0.30156 0.55792 0.060542 1.2636-0.32024 1.7708-0.38078 0.50717-0.89259 0.91184-1.2268 1.4508-0.83129 1.3405-0.35899 3.0736 0.1362 4.5712a4.03 4.03 0 0 0 0.7749 1.5475c0.73365 0.78005 1.9292 0.84789 3 0.86352 0.77932 0.01138 1.6721-0.02713 2.1649-0.63094 0.64341-0.7883 0.1935-2.0182 0.61711-2.9434 0.38472-0.84025 1.3649-1.2007 2.253-1.4564 1.627-0.46838 3.285-0.86657 4.8231-1.574 1.9099-0.8785 3.6949-2.2476 5.7942-2.3606 0.58894-0.03172 1.1925 0.03778 1.7598-0.12358 0.5673-0.16136 1.1062-0.65183 1.0632-1.2401-0.0367-0.5026-0.46192-0.87167-0.79419-1.2506-0.33226-0.37888-0.5932-0.9615-0.28782-1.3624l5.5024-1.0278c-0.39004-1.063-0.69388-2.4629 0.20238-3.1548 0.32338-0.24964 0.75635-0.34941 1.0317-0.65121 0.46927-0.51438 0.2333-1.4004-0.30841-1.8379-0.5417-0.43745-1.2741-0.539-1.968-0.59664-2.4127-0.20037-4.8392-0.06797-7.2566 0.06454q-7.0881 0.38853-14.176 0.77706c-0.95127 0.052139-2.0496-0.027519-2.922 0.29702-0.7386 0.27475-1.2638 0.77909-2.1085 0.95628-1.5594 0.32712-3.2756 0.10576-4.6867 0.98128z"/>
   <path d="m28.304 94.258a0.58527 0.58527 0 0 0-0.42338 0.09602 0.53452 0.53452 0 0 0-0.13782 0.32647 2.156 2.156 0 0 0 0.31316 1.5431 1.5111 1.5111 0 0 0 1.3832 0.66318c0.65494-0.08352 1.1376-0.64226 1.7397-0.91492 0.92801-0.41984 4.8691-1.0743 2.1429-2.5472-0.93952-0.50758-1.5466-0.05951-2.2871 0.27477a5.2041 5.2041 0 0 1-2.7307 0.55856z"/>
   <path d="m52.182 81.929a1.5566 1.5566 0 0 0-0.75735 0.65924 0.66516 0.66516 0 0 0 0.24946 0.88239 0.99276 0.99276 0 0 0 0.37136 0.05891l1.2944 0.03867c0.54988 0.01643 1.2367 0.13354 1.3845 0.66345 0.10972 0.39347-0.13585 0.89909 0.16045 1.1803a0.83468 0.83468 0 0 0 0.44032 0.17174 3.0007 3.0007 0 0 0 1.3042 0.04209c0.94179-0.25261 0.44693-0.82742 0.74355-1.3392 0.45385-0.78312 0.37528-0.30906 1.175-0.75789 0.59058-0.33146 1.3537-0.93274 0.8608-1.7775-0.8572-1.4691-5.9617-0.45319-7.2267 0.17793z"/>
   <path d="m77.73 81.191-0.75161 0.1003c-1.6949 0.22618-3.3994 0.45444-5.0318 0.96341a8.3747 8.3747 0 0 0 2.2037 0.54074 6.7693 6.7693 0 0 1 1.2344 0.17547c0.72102 0.21464 1.4475 0.76891 2.1441 0.48498 0.4319-0.17605 0.57284-0.62576 0.93062-0.86409 0.24705-0.16457 1.1841-0.43094 1.2888-0.59704 0.84682-1.3429-1.3672-0.89062-2.0182-0.80376z"/>
   <path d="m81.031 84.607a14.096 14.096 0 0 0-2.7737 2.0313c-0.35314 0.33197-0.71385 0.74484-0.68182 1.2285 0.04256 0.64277 0.72726 1.0156 1.3205 1.2668l2.4027 1.0173c0.29148-0.41083 0.02471-0.97795-0.27655-1.3817-0.30125-0.40373-0.65924-0.87084-0.52614-1.3567 0.15189-0.55442 0.82788-0.74335 1.3947-0.83886 0.9236-0.15562 3.4151-0.14314 3.1157-1.6316-0.35274-1.7539-3.0484-0.85317-3.9755-0.33495z"/>
   <path d="m80.547 183.86c-0.22874 0.66222-0.25044 1.4423 0.14523 2.0205 0.44399 0.64878 1.3325 0.89062 2.1013 0.72609a3.7854 3.7854 0 0 0 1.9509-1.2543 6.7183 6.7183 0 0 0 1.1221-1.7208 13.432 13.432 0 0 0 0.83174-3.0433l0.74602-3.9169c0.16671-0.8754 0.16025-3.5592-1.4487-2.6848-0.43954 0.23888-1.4572 2.1249-1.9179 2.6598-0.8302 0.96394-0.94005 1.8992-1.3771 3.067-0.54743 1.4627-1.6476 2.6818-2.1537 4.1468z"/>
   <path d="m165.53 203.9a11.73 11.73 0 0 1-1.5289-0.72782 12.887 12.887 0 0 0-0.77503 4.224l3.6025-2.0386c0.54194-0.30666 1.1562-0.73276 1.1445-1.3553a0.42878 0.42878 0 0 0-0.19916-0.38987 0.48567 0.48567 0 0 0-0.25254-0.0296c-0.5342 0.0445-1.0213 0.30737-1.5252 0.49015-0.50393 0.18279-1.0932 0.2794-1.5555 8e-3"/>
   <path d="m184.53 205.11a7.7978 7.7978 0 0 0-1.1553 0.4146c-0.82671 0.42064-1.3891 1.2196-2.1331 1.7736-0.71191 0.53017-1.5689 0.82126-2.4102 1.1043-0.24746 0.21876-0.13375 0.65935 0.13489 0.85152a1.6709 1.6709 0 0 0 0.95149 0.21387c0.87402 0.0193 1.7948 0.0277 2.5604-0.39445a8.0747 8.0747 0 0 0 1.2054-0.95677c0.89511-0.74685 1.97-1.2396 3.0341-1.7158a3.4824 3.4824 0 0 0 1.0575-0.63228c0.66863-0.65874 0.71565-1.675-0.24847-1.8992-0.77901-0.18117-2.255 1.0007-2.9968 1.2406z"/>
   <path d="m192.93 199.63a3.0053 3.0053 0 0 0-0.91951-2.4624c-0.01 0.9069-0.0374 1.873-0.54745 2.623-0.36343 0.53433-0.93324 0.89529-1.3314 1.4043-0.39817 0.50898-0.57491 1.3158-0.10787 1.7624a1.7502 1.7502 0 0 0 1.0372 0.35725c0.92969 0.10943 2.0058 0.17043 2.6578-0.50123 0.35592-0.3666 0.52903-0.90956 0.96311-1.1791a1.1717 1.1717 0 0 0 0.42254-0.30237c0.17923-0.28491-0.10557-0.6604-0.42611-0.76306-0.32057-0.10266-0.67384-0.0544-0.996-0.1519s-0.61772-0.45976-0.45244-0.75297"/>
   <path d="m178 166.38a4.179 4.179 0 0 1-1.4912 0.0879c-0.82764-0.15216-1.4718-0.77592-2.14-1.2875a9.4395 9.4395 0 0 0-5.5154-1.927c-1.8157-0.0343-3.6484 0.45773-5.4317 0.11445 0.11651 0.64804 0.67105 1.1341 1.2627 1.423s1.2446 0.43427 1.8392 0.71729a4.3912 4.3912 0 0 1 2.127 2.2128c0.19148 0.44694 0.31194 0.93332 0.60198 1.3236 0.59283 0.79768 1.7165 0.97283 2.7082 0.9076 1.293-0.085 2.6433-0.45691 3.8462 0.0248 0.92019 0.36851 1.5788 1.1739 2.3471 1.8002 0.76832 0.62626 1.8505 1.091 2.7328 0.63919a4.5176 4.5176 0 0 1-3.1259-4.3471c0.86532 0.0796 3.3576 0.0488 3.2234-1.4215-0.11377-1.246-2.2414-0.40218-2.9844-0.26769z"/>
   <path d="m166.68 176.52c0.15365-0.84266 0.99399-1.5868 0.73221-2.4024-0.18103-0.56401-0.83497-0.84247-1.4272-0.85638-0.59219-0.0139-1.174 0.1625-1.7661 0.17911a8.6069 8.6069 0 0 0-1.1564 0.0164c-1.1754 0.19321-1.8999 1.4252-3.0076 1.8633-0.67354 0.26636-1.4302 0.21544-2.1307 0.39957-1.5901 0.41799-2.5962 1.9206-3.7078 3.132a13.232 13.232 0 0 1-6.7162 3.9168c-0.90411 0.20935-1.876 0.34328-2.5947 0.93047-0.95165 0.77758-1.1859 2.1106-1.3976 3.3212a54.857 54.857 0 0 1-2.6704 9.803l3.7757 0.48207c0.71785 0.0916 1.4617 0.18134 2.1534-0.0313a6.2515 6.2515 0 0 0 1.4164-0.75446 14.14 14.14 0 0 1 5.5244-1.9941c0.98875-0.13575 2.0254-0.16062 2.9533 0.2069 0.92788 0.36752 1.7239 1.201 1.8017 2.196a2.3196 2.3196 0 0 1 2.3183 0.56383 4.0298 4.0298 0 0 1 1.1068 2.2096c0.0995 0.51656 0.19897 1.1355 0.6783 1.3522 0.39106 0.17679 0.83965-0.0136 1.2674-0.0479 1.4516-0.11615 2.6562 1.5765 4.083 1.285 1.5302-0.3126 1.9059-2.6043 3.3987-3.0634 0.85741-0.26366 2.06 0.057 2.4706-0.74059 0.36187-0.70296-0.36013-1.5142-0.28567-2.3013 0.0917-0.96921 1.2349-1.3806 2.1163-1.7941 3.0385-1.4257 4.4803-5.5152 3.008-8.5314-0.87238-1.787-2.5889-3.1938-2.9059-5.157-0.24389-1.5104 0.35153-3.2718-0.6115-4.4607-0.48991-0.60481-1.3194-0.93865-1.6109-1.6603-0.18348-0.45426-0.10975-0.96966-0.20849-1.4495-0.0987-0.47987-0.51739-0.98182-0.99126-0.85743-1.3755 0.36105-1.8145 4.6103-2.5509 5.6428-1.1195 1.5694-3.4177 0.53563-3.0652-1.398z"/>
   <path d="m141.26 167.98c-0.47007-0.13181-0.98335-0.26165-1.4338-0.0733-0.4504 0.18836-0.71343 0.84963-0.35194 1.1778 2.828-0.11017 5.6733-0.21957 8.4772 0.16449 3.2306 0.44248 6.4278 1.5386 9.6726 1.2161a49.227 49.227 0 0 0-5.6425-1.3093l-3.1766-0.60682a24.561 24.561 0 0 0-2.5795-0.39857c-1.8122-0.14967-3.1838 0.32927-4.9656-0.17033z"/>
   <path d="m144.09 158.13c-0.23478-0.0196-0.52554-0.0365-0.647 0.16536-0.11604 0.19287 0.0168 0.44768-0.0456 0.66395-0.0853 0.29545-0.47218 0.37093-0.77705 0.33071-0.30486-0.0402-0.63457-0.13656-0.90467 0.0104a0.76678 0.76678 0 0 0-0.29647 0.87098 2.2422 2.2422 0 0 0 0.52289 0.83353 8.5156 8.5156 0 0 0 1.3567 1.3608c0.97196 0.71746 2.2888 1.0632 2.9009 2.1047a1.3965 1.3965 0 0 0 0.38744 0.52145c0.29388 0.18615 0.67715 0.0445 0.99356-0.10004l1.1091-0.50679a1.2599 1.2599 0 0 0 0.5185-0.35263c0.2534-0.34382 0.0978-0.83267-0.11493-1.2031-0.21268-0.37039-0.48493-0.75371-0.43929-1.1784 0.0814-0.75716 1.0549-1.0468 1.4552-1.6946 0.40349-0.65299 0.14082-1.4944 0.18732-2.2606 0.0544-0.89607 0.61748-2.0617-0.28843-2.7312-0.7699-0.56899-1.5058-0.0432-2.0586 0.58494-1.1657 1.3247-1.7168 2.7593-3.8597 2.5804z"/>
   <path d="m150.82 144.75c0.37866 0.72503 1.1681 1.1577 1.581 1.8638 0.44757 0.76533 0.39657 1.7542 0.88212 2.496 0.49816 0.76107 1.5007 1.1651 1.78 2.0308 0.305 0.94507-0.38703 2.0937 0.16461 2.9195a1.2255 1.2255 0 0 0 1.7977 0.16517 1.3187 1.3187 0 0 0-0.0544-1.8398c-0.32661-0.29779-0.7956-0.42648-1.0683-0.77431a1.6248 1.6248 0 0 1-0.2767-0.6737 4.4105 4.4105 0 0 1 0.0694-2.1138 0.94066 0.94066 0 0 0 0.0532-0.5529c-0.12277-0.35685-0.60597-0.38217-0.94509-0.54772-0.77025-0.37599-0.75156-1.463-0.61699-2.3095-0.0896 0.56356-2.097-0.39495-2.3073-0.71418-0.4176-0.63415-0.19032-1.8574-0.27299-2.5582-0.90155 0.43443-1.2492 1.7225-0.78625 2.609z"/>
   <path d="m130.6 155.9c-0.37052-0.41478-0.9286-0.84871-1.4254-0.59855-0.37898 0.19084-0.48324 0.71521-0.3347 1.1127a2.4492 2.4492 0 0 0 0.80829 0.96361c1.0352 0.85376 2.1499 1.6243 3.053 2.6168 1.6162 1.7761 2.4723 4.1726 4.23 5.8088a2.3725 2.3725 0 0 0 1.3319 0.72083c0.51208 0.0476 1.0871-0.28015 1.146-0.79105 0.0485-0.42086-0.24491-0.79755-0.53163-1.1094-0.68276-0.74266-1.4302-1.4262-2.0748-2.2022a1.8505 1.8505 0 0 1-0.53035-1.1076c-3e-3 -0.41783 0.37775-0.85516 0.78258-0.75169-0.49235-0.12584-0.85748-0.94608-1.5801-1.1003-0.6039-0.12885-0.74999 0.245-1.4687-0.0632-1.3707-0.5879-2.4462-2.4239-3.4061-3.4985z"/>
   <path d="m162.81 115.51a11.35 11.35 0 0 1-1.158-0.41367c-1.0178-0.30549-2.3643 0.44258-2.2287 1.4965 0.0901 0.70024 0.74183 1.1723 1.1017 1.7797 0.53373 0.90075 0.39144 2.0432 0.11097 3.052a2.3858 2.3858 0 0 1-0.38508 0.86835 2.9411 2.9411 0 0 1-0.91198 0.65604 12.198 12.198 0 0 0-3.5692 3.0322 0.87389 0.87389 0 0 0-0.21554 0.40631c-0.0485 0.35584 0.30914 0.61505 0.51136 0.91183 0.4492 0.65927 0.12453 1.5464 0.16894 2.3429a0.66241 0.66241 0 0 0 0.27911 0.58118c0.27074 0.13753 0.59157-0.0961 0.73832-0.36195 0.48699-0.8823 0.12014-2.2985 1.0337-2.7239 0.17282-0.0805 0.38233-0.1144 0.49762-0.26621 0.18291-0.24083 6e-3 -0.59741 0.0991-0.88526 0.13917-0.4322 0.73029-0.4516 1.1839-0.43243a6.7198 6.7198 0 0 0 2.3083-0.3073 1.5365 1.5365 0 0 0 0.76412-0.44248c0.2731-0.34084 0.2489-0.82546 0.19433-1.2588a17.064 17.064 0 0 0-2.016-6.1515c0.80252 0.10251 1.6756 0.19129 2.3681-0.22694 0.38777-0.2342 0.8528-0.93455 0.66048-1.4112-0.30417-0.75382-0.8536-0.11931-1.5356-0.24533z"/>
   <path d="m59.924 127.39c0.09604 0.5151 0.19045 1.0575 0.02164 1.5535-0.16881 0.49603-0.69984 0.9105-1.2013 0.75851-0.38916-0.11796-0.61396-0.50925-0.89029-0.80757-1.5367-1.659-5.0039-0.6985-5.9532-2.751-0.38744-0.83767-0.12414-1.8412-0.38841-2.7255a2.4259 2.4259 0 0 0-2.4567-1.669 5.0482 5.0482 0 0 0-1.4137 0.42201 35.646 35.646 0 0 1-9.3666 2.3427 7.6958 7.6958 0 0 0-1.7997 0.32747c-1.3197 0.47844-2.2214 1.7019-2.8631 2.9504-0.6417 1.2485-1.1154 2.6001-1.9758 3.7093-0.90418 1.1657-2.1712 1.982-3.3531 2.865a3.4211 3.4211 0 0 0-1.1061 1.1593c-0.25623 0.52603-0.24177 1.1379-0.22188 1.7227l0.24155 7.1024c0.03107 0.91355 0.07008 1.8597 0.47895 2.6773 0.51057 1.0209 1.5192 1.6895 2.2189 2.5913a5.0756 5.0756 0 0 1 1.053 3.2413c-0.0149 0.47018-0.06161 1.0263 0.30457 1.3216a1.3393 1.3393 0 0 0 0.74887 0.21537l9.6075 0.78632c1.69 0.13832 3.563 0.36575 4.6663 1.6533 0.52074 0.60768 0.93907 1.4816 1.7367 1.5468 0.34213 0.028 0.67503-0.11248 1.0172-0.13958 0.86335-0.0684 1.6218 0.58689 2.1004 1.3086a5.8059 5.8059 0 0 1 0.93253 3.7254c-0.07848 0.82333-0.33375 1.6238-0.38879 2.449-0.20941 3.14 2.4525 5.8681 2.5041 9.0146 0.03035 1.8508-0.84828 3.5802-1.7049 5.2211 1.3825 2.0944 0.25044 4.8834 0.80086 7.3319 0.5222 2.3229 2.459 4.1415 2.9417 6.473 0.22094 1.0673 0.23372 2.3808 1.1749 2.9306a2.6782 2.6782 0 0 0 1.3295 0.2662 17.526 17.526 0 0 0 7.9812-1.817c1.1638-0.57752 2.3699-1.4397 2.5732-2.7229 0.16391-1.0348-0.36088-2.1924 0.1732-3.0938 0.62944-1.0624 2.2419-0.97816 3.1681-1.795 1.5025-1.3251 0.33087-3.8522 0.93962-5.7608 0.5472-1.7156 2.4308-2.627 3.3645-4.1668a7.4045 7.4045 0 0 0 0.78184-2.119 30.227 30.227 0 0 0 0.79549-5.4045 32.395 32.395 0 0 1 0.24451-3.3103c1.0067-6.2542 7.1896-10.442 9.197-16.45 0.19171-0.57378 0.28174-1.338-0.22871-1.6627a1.4619 1.4619 0 0 0-0.97213-0.10174l-4.4288 0.55836c-0.5501 0.0694-1.1332 0.13417-1.6384-0.0943-0.50518-0.22849-0.86724-0.86757-0.59928-1.353 0.75221-1.3625-0.79511-3.0843-1.4825-4.4806a66.118 66.118 0 0 0-6.584-10.678 1.0853 1.0853 0 0 1-0.28866-0.62673l1.257 0.0419c-0.4243-1.5225-1.1245-3.1886-2.6037-3.7455-0.8335-0.31383-1.7565-0.20532-2.6458-0.15672-2.5472 0.13915-5.278-0.24543-7.799-0.63524z"/>
   <path d="m67.725 93.085c0.66654 0.70783 1.4135 1.4583 2.3779 1.5817 1.7034 0.21793 2.9281-1.5435 3.7079-3.0736a1.5018 1.5018 0 0 0 1.5672 1.3894 3.0937 3.0937 0 0 0 1.1787-0.46083 23.221 23.221 0 0 1 11.001-2.8439 1.1881 1.1881 0 0 1 0.90726-1.3061c0.78196-0.15502 1.4863 0.52103 1.8635 1.2233 0.37721 0.70228 0.61242 1.5163 1.2117 2.0419s1.7596 0.50276 1.9963-0.25845c0.22726-0.7308-0.53408-1.354-1.1666-1.7849s-1.2992-1.2283-0.87327-1.8641c3.2314-0.7153 6.4829-1.4333 9.7895-1.5755a4.0994 4.0994 0 0 0 1.6479-0.28387c0.50427-0.24746 0.90507-0.80918 0.76947-1.3543a3.7316 3.7316 0 0 1-3.8942-1.4688c4.5881-0.37862 9.4681-0.70134 13.534 1.4576 0.48794 1.0475-1.9989 1.919-1.3336 2.8638 0.21221 0.30132 0.63744 0.33666 1.0059 0.3435 2.8256 0.05246 5.6675 0.1039 8.4612-0.32269 1.0209-0.1559 2.0522-0.37597 3.0772-0.24955 1.7073 0.21056 3.1675 1.3497 4.8472 1.7211 0.68364 0.15117 1.4502 0.15629 2.0264-0.24134 0.57628-0.39762 0.82399-1.303 0.35174-1.8199 1.5814-1.55 4.2062-1.1658 6.2925-0.42377 2.0863 0.74205 4.0628 1.9387 6.271 2.1041 1.5834 0.11861 3.1889-0.30732 4.7536-0.03659 0.98323 0.17013 1.8983 0.60754 2.8593 0.87627 1.8175 0.50826 3.7401 0.40097 5.6272 0.42543a39.429 39.429 0 0 1 14.051 2.792 4.1776 4.1776 0 0 1 1.562 0.92287c0.41627 0.44578 0.62857 1.1385 0.34877 1.6805l-4.623-0.67548c0.43558 0.85746 1.5624 1.0036 2.4776 1.2994 0.91514 0.29581 1.864 1.3064 1.314 2.0954-0.99153-0.31571-1.8901 0.67563-2.3909 1.5877-0.50088 0.91211-1.1113 2.0045-2.1504 2.06-0.93049 0.0498-2.0558-0.74254-2.6623-0.0351a18.158 18.158 0 0 1 2.1393 3.4202c0.59921 1.2483 1.026 2.8213 0.21612 3.9444a1.0224 1.0224 0 0 1-0.54658 0.42386c-0.66143 0.16745-1.0912-0.64171-1.5655-1.1322-0.59775-0.61802-1.5017-0.79307-2.3111-1.0829-0.80945-0.28984-1.6621-0.86002-1.7255-1.7175-0.0394-0.53348 0.24226-1.0294 0.44973-1.5225a5.8657 5.8657 0 0 0 0.44567-2.6309c-0.0454-0.7237-0.24834-1.4765-0.76808-1.9822-0.51974-0.50565-1.4171-0.66606-1.975-0.20294-0.26035 0.21609-0.469 0.56175-0.80709 0.57468-0.59739 0.02286-1.0561-1.0186-1.5367-0.66312a1.633 1.633 0 0 1-0.22191 1.0922c-1.4342 1.2473-3.6375 0.71965-5.4865 1.1603a10.298 10.298 0 0 0-2.5031 1.0932 1.6106 1.6106 0 0 0-0.71548 0.60056c-0.2308 0.44851 0.0236 1.0229 0.43048 1.3212a3.4175 3.4175 0 0 0 1.4194 0.48447c2.2541 0.42691 4.5411 1.0878 6.3207 2.5356 1.7796 1.4478 2.9467 3.8412 2.3835 6.0652l-4.4452-4.2475q0.25326 2.6752 0.28744 5.3651a2.4121 2.4121 0 0 1-0.1409 1.032c-0.3169 0.69994-1.1758 0.93548-1.9284 1.09a1.5106 1.5106 0 0 0-1.1596 1.9354c0.26741 0.87162 0.93417 1.5512 1.5447 2.2283s1.2113 1.4467 1.2912 2.3549c0.0799 0.9082-0.60528 1.9319-1.5148 1.8688-0.68949-0.0479-1.201-0.6651-1.4951-1.2906s-0.46908-1.3222-0.91096-1.8536c-1.3375-1.6086-4.3416-0.91938-5.5397-2.6342a2.7097 2.7097 0 0 0-0.56033 2.5786c0.5574-0.34895 1.3205-0.0247 1.7393 0.48229 0.41879 0.50702 0.61636 1.157 0.94524 1.7265 0.4438 0.76843 1.1501 1.4496 1.212 2.3349a7.632 7.632 0 0 0 0.0169 1.0042c0.11004 0.53636 0.56339 0.92149 0.87772 1.3698 0.73139 1.0432 0.69525 2.4762 0.22383 3.6599-0.47141 1.1836-1.3183 2.1726-2.1572 3.1315-1.4652 1.6748-2.9603 3.3398-4.6973 4.7306-0.49565 0.39688-1.0246 0.78712-1.3333 1.342s-0.32453 1.3337 0.14984 1.7557c-0.33943 0.017-0.94815 0.18394-1.2876 0.20094a29.935 29.935 0 0 1-0.0776-4.095c-1.3395-0.64317-2.7817 1.0793-2.6089 2.5551s1.2403 2.6601 2.0002 3.937c0.55576 0.93372 0.96878 2.0225 0.78324 3.0931-0.18554 1.0706-1.1412 2.0583-2.2237 1.9639-1.7218-0.15019-2.442-2.622-4.1471-2.9049a0.6967 0.6967 0 0 0-0.44874 0.0445c-0.2531 0.13891-0.2971 0.47757-0.31131 0.76594-0.0697 1.4153-0.13015 2.8868 0.42233 4.1917 0.80825 1.909 2.8962 3.5122 2.4582 5.5384-2.3595-1.0968-3.5863-3.7428-4.1433-6.2845-0.557-2.5417-0.64983-5.2099-1.6483-7.6127-0.75816 0.97175-2.3517 0.16843-3.0445-0.85101-0.65673-0.96649-1.0611-2.0845-1.6982-3.064s-1.6132-1.8566-2.7805-1.9104c-1.2238-0.0565-2.2852 0.78335-3.2186 1.5769-0.76754 0.65251-1.5556 1.3307-2.0042 2.2327-0.65288 1.3126-0.48209 2.8599-0.51355 4.3256-0.034 1.5845-0.36982 3.2562-1.4497 4.4162-1.0799 1.16-3.0732 1.564-4.2644 0.51857-0.62187-0.54578-0.92296-1.3612-1.1912-2.1439a104.96 104.96 0 0 1-3.2248-11.512c-0.20014 0.88913-0.98089 2.0351-1.7267 1.5114a1.5463 1.5463 0 0 1-0.39781-0.51255c-1.3913-2.358-3.9677-3.7724-6.5709-4.6204-2.6032-0.84804-5.3421-1.2436-7.9164-2.1756a20.052 20.052 0 0 1-4.1066-2.0456 3.2298 3.2298 0 0 0-0.19738 3.3038c0.57104 1.0111 1.8633 1.5961 2.9694 1.2427 0.57162-0.18264 1.0543-0.57946 1.6215-0.77545s1.3285-0.0998 1.5765 0.4467c0.2374 0.52304-0.12143 1.1558 0.05657 1.7019 0.2711 0.83177 1.5256 0.89585 1.9643 1.6528 0.32638 0.56316 0.05783 1.311-0.40818 1.7654-0.46602 0.45443-1.0878 0.70367-1.6566 1.02-1.8458 1.0264-3.1584 2.7785-4.7715 4.1417-1.6131 1.3632-3.889 2.3585-5.8115 1.484 0.45826-2.3204-2.3058-4.024-2.8143-6.334-0.16737-0.7603-0.08061-1.568-0.31956-2.3089-0.34596-1.0727-1.2977-1.8103-2.0785-2.6233a10.295 10.295 0 0 1-2.8239-7.4904c0.04219-0.95467 0.21758-1.9249 9.3e-5 -2.8554s-0.9879-1.8312-1.9426-1.789c-2.1804 0.0963-4.9273 0.2585-6.0713-1.6002-0.40829-0.66339-0.58597-1.635 0.0043-2.1433 0.41643-0.35854 1.0311-0.32477 1.578-0.27097l4.9129 0.48329c1.149 0.11304 2.3911 0.20632 3.3772-0.39439 0.98602-0.6007 1.4133-2.1952 0.50026-2.902-0.66711-0.51639-1.8623-0.48839-2.0562-1.3094-0.1615-0.68379 0.59536-1.4596 0.18658-2.0311-0.2931-0.40974-0.95206-0.29607-1.3514 0.0111-0.39931 0.30716-0.68902 0.75637-1.1359 0.98894-0.78394 0.40798-1.7206 0.0197-2.5641-0.24419s-1.9741-0.2863-2.3832 0.49705c-0.45752 0.87609 0.40582 2.0241-0.04824 2.9019-0.60031 1.1607-2.6333 0.49992-3.4764 1.4983-0.96744 1.1456 0.65831 2.8538 0.33205 4.3174a2.6876 2.6876 0 0 1-2.6478-0.14876 2.5718 2.5718 0 0 1-1.1114-2.3946c0.08076-0.65836 0.424-1.3304 0.19402-1.9526-0.18594-0.50302-0.691-0.80248-1.1604-1.0619l-4.7742-2.6382c-0.44325 0.82226 0.11712 1.8416 0.81794 2.4592 0.70083 0.61759 1.5786 1.0827 2.039 1.8955a2.4881 2.4881 0 0 1-0.93624 3.2802 0.57436 0.57436 0 0 1-0.47324 0.0825 0.66021 0.66021 0 0 1-0.30692-0.41272c-0.84236-2.1557-2.1071-4.2811-4.1291-5.4071s-4.9274-0.89455-6.2533 1.0024c-0.31494 0.45056-0.52631 0.96414-0.80066 1.4405-1.4576 2.5308-4.5824 3.7293-7.5019 3.651a1.4897 1.4897 0 0 1-0.8184-0.19225c-0.47183-0.32587-0.45059-1.0174-0.37835-1.5862l0.30646-2.4141c0.06154-0.48478 0.15071-1.0206 0.5344-1.3232 0.54085-0.42658 1.3211-0.15738 2.0098-0.1673a2.5471 2.5471 0 0 0 2.3119-1.7842 2.8706 2.8706 0 0 0-0.79916-2.8547c-0.31569-0.2965-0.73941-0.66896-0.57267-1.0687a0.88347 0.88347 0 0 1 0.61955-0.41719c1.2372-0.35929 2.5445-0.45346 3.7611-0.87738 1.2166-0.42393 2.3964-1.2913 2.6845-2.547 0.08829-0.38481 0.12849-0.85097 0.47415-1.0418a1.4218 1.4218 0 0 1 0.54795-0.11195 2.6663 2.6663 0 0 0 2.2871-2.7797c0.58305-0.4074 1.3999-0.10771 1.964 0.32561 0.56405 0.43331 1.062 1.0058 1.7484 1.1926 1.279 0.34812 2.5151-0.78434 3.8406-0.78959 0.55743-2e-3 1.1345 0.19489 1.6589 6e-3 0.53164-0.19158 0.84912-0.7208 1.2571-1.1118 0.40803-0.39097 1.124-0.62944 1.5007-0.20826l-0.32084-2.3765a4.672 4.672 0 0 0 3.8022-0.68741l-4.1466-1.4011a0.90153 0.90153 0 0 1-0.38775-0.20732c-0.30146-0.32462-0.0021-0.83047 0.24311-1.1995 0.58644-0.88276 0.68488-2.3369-0.2795-2.7764-0.65825-0.29998-1.4138 0.0601-2.0456 0.41239l-3.0265 1.6875c-0.09618 0.57528 0.60732 0.90131 1.0433 1.2888a1.7492 1.7492 0 0 1-1.1407 3.0564 2.1796 2.1796 0 0 1 0.38925 1.8478l-2.0363 0.14645a0.88219 0.88219 0 0 1-0.66045-0.12891c-0.21779-0.19342-0.18825-0.53237-0.23873-0.81924-0.12183-0.69239-0.79981-1.1777-1.4917-1.3021-0.69193-0.12443-1.3998 0.0351-2.0849 0.19255a1.2443 1.2443 0 0 1-0.89622-0.0207 0.89493 0.89493 0 0 1-0.35456-0.44752c-0.30038-0.72834-0.01961-1.5844 0.46283-2.2073 0.48244-0.62285 1.1429-1.0782 1.736-1.5967a10.118 10.118 0 0 0 3.0087-4.6666c1.121-0.46967 2.2815-1.1078 3.4025-1.5775a10.411 10.411 0 0 1 5.5963-1.0843l3.7963 0.07251c1.124 0.02146 2.2783 0.04898 3.3176 0.47747 1.0393 0.42849 1.9525 1.3553 2.0242 2.4771a0.7604 0.7604 0 0 1-0.24342 0.69518 0.89681 0.89681 0 0 1-0.47995 0.10818c-1.0482 0.03684-1.4951 0.29802-2.5433 0.33484z"/>
   <path d="m37.467 104.98a1.1108 1.1108 0 0 0 0.30291-1.1172 2.0779 2.0779 0 0 0-2.1516 0.40628 3.6274 3.6274 0 0 0-0.57642 0.76203c-0.49884 0.81385-0.94006 1.786-0.65097 2.6957a0.76581 0.76581 0 0 0 0.35048 0.47937 0.9214 0.9214 0 0 0 0.40852 0.064 13.695 13.695 0 0 0 1.644-0.10119c0.33499-0.041 0.72407-0.13556 0.85353-0.44722 0.17018-0.40968-0.24172-0.87332-0.12164-1.3004a1.4207 1.4207 0 0 1 0.35079-0.50236 0.66414 0.66414 0 0 0 0.20688-0.55756c-0.04846-0.20038-0.35528-0.31406-0.46574-0.13996"/>
   <path d="m40.316 101.29a4.5997 4.5997 0 0 0-1.4898-0.0936 0.64968 0.64968 0 0 0-0.31744 0.0721 0.52964 0.52964 0 0 0-0.19562 0.28329 1.4074 1.4074 0 0 0 0.81939 1.7247 1.7609 1.7609 0 0 1 0.50811 0.20419c0.42135 0.32692 0.15274 0.99514 0.23251 1.5224 0.08957 0.59212 0.66272 1.0891 0.55764 1.6787-0.08279 0.46448-0.57887 0.83226-0.499 1.2973 0.08365 0.48701 0.70164 0.63335 1.1942 0.67235a1.5019 1.5019 0 0 0 0.84611-0.097 1.3101 1.3101 0 0 0 0.53382-0.77308 4.9553 4.9553 0 0 0 0.24964-1.8658 1.7693 1.7693 0 0 0-0.2104-0.82354 4.598 4.598 0 0 0-0.49167-0.56299c-0.94378-1.0978 0.04996-2.7353-1.7376-3.2391z"/>
  </g>
  <g fill="none" stroke="#ff6366">
   <path d="m-40.824 108.05c29.405-9.2235 58.249-7.3547 86.609 3.5818" stroke-width=".665"/>
   <path d="m-12.62 176.41c8.86-24.773 17.876-49.5 58.405-64.772" stroke-width=".565"/>
   <path d="m61.001 153.87c1.7832-17.195-5.1716-30.418-15.216-42.237" stroke-width=".665"/>
   <path d="m164.36 187.39c-35.106-60.138-77.381-63.675-118.57-75.751" stroke-width=".565"/>
   <path d="m108.44 108.44c-20.316-3.0094-41.044-3.0633-62.653 3.1956" stroke-width=".565"/>
  </g>
  <g fill="#e96ccc" stroke-width=".26458">
   <circle cx="-41.185" cy="108.67" r="3.1665"/>
   <circle cx="-12.577" cy="176.37" r="3.1665"/>
   <circle cx="108.73" cy="108.23" r="3.1665"/>
   <circle cx="164.42" cy="187.29" r="3.1665"/>
   <circle cx="61.018" cy="153.66" r="3.1665"/>
  </g>
  <circle cx="45.966" cy="111.74" r="4.0371" fill="#7ef5b4" stroke-width=".33732"/>
 </g>
</svg>
